<?xml version="1.0" encoding="UTF-8"?>
<svg xmlns="http://www.w3.org/2000/svg" xmlns:xlink="http://www.w3.org/1999/xlink" width="24pt" height="24pt" viewBox="0 0 24 24" version="1.1">
<g id="surface1369546">
<path style=" stroke:none;fill-rule:nonzero;fill:rgb(0.784314%,85.490196%,77.647059%);fill-opacity:1;" d="M 2.398438 24 C 1.074219 24 0 22.925781 0 21.601562 L 0 2.398438 C 0 1.074219 1.074219 0 2.398438 0 L 21.601562 0 C 22.925781 0 24 1.074219 24 2.398438 L 24 21.601562 C 24 22.925781 22.925781 24 21.601562 24 Z M 2.398438 24 "/>
<path style=" stroke:none;fill-rule:nonzero;fill:rgb(0%,0%,0%);fill-opacity:1;" d="M 17.410156 3.613281 C 17.195312 3.613281 16.984375 3.695312 16.820312 3.859375 L 15.40625 5.273438 L 18.726562 8.59375 L 20.140625 7.179688 C 20.464844 6.855469 20.464844 6.328125 20.140625 6.003906 L 17.996094 3.859375 C 17.832031 3.695312 17.621094 3.613281 17.410156 3.613281 Z M 14.160156 6.519531 L 4.613281 16.066406 L 4.613281 19.386719 L 7.933594 19.386719 L 17.480469 9.839844 Z M 14.160156 6.519531 "/>
</g>
</svg>
